<?xml version="1.0" standalone="no"?>
<!DOCTYPE svg PUBLIC "-//W3C//DTD SVG 1.1//EN" "http://www.w3.org/Graphics/SVG/1.1/DTD/svg11.dtd">
<svg width="100%" height="100%" viewBox="0 0 42 14" version="1.1" xmlns="http://www.w3.org/2000/svg" xmlns:xlink="http://www.w3.org/1999/xlink" xml:space="preserve" style="fill-rule:evenodd;clip-rule:evenodd;stroke-linejoin:round;stroke-miterlimit:1.41421;">
    <g transform="matrix(1,0,0,1,-148.576,-90.224)">
        <path d="M170.602,93.147C170.398,92.807 170.262,92.671 169.99,92.331C169.786,92.127 169.378,91.719 168.766,91.311C168.087,90.835 166.863,90.224 164.823,90.224C163.328,90.224 161.968,90.563 160.745,91.447C160.269,91.787 159.929,92.127 159.793,92.331C158.773,93.418 158.433,94.778 158.297,95.254C158.161,95.662 158.093,96.206 158.093,97.09C158.093,99.197 158.773,100.421 159.249,101.168C160.54,103.072 162.308,103.616 163.192,103.752C163.668,103.888 164.279,103.956 164.755,103.956C165.775,103.956 168.358,103.752 170.126,101.304C171.486,99.537 171.622,97.634 171.622,96.682L164.823,96.682L164.823,99.129L168.494,99.129C168.358,99.469 168.155,99.741 167.95,100.081C167.543,100.557 166.455,101.372 164.891,101.372C162.988,101.372 162.036,100.285 161.628,99.673C160.88,98.585 160.88,97.43 160.88,97.022C160.88,96.41 160.948,94.846 162.308,93.691C163.056,93.079 163.872,92.807 164.823,92.807C166.387,92.807 167.339,93.555 167.814,93.962C168.087,94.234 168.155,94.438 168.29,94.506L170.602,93.147ZM172.777,90.563L172.777,103.684L175.632,103.684L175.632,98.177L180.391,98.177L180.391,95.594L175.632,95.594L175.632,93.011L180.391,93.011L180.391,90.563L172.777,90.563ZM182.295,95.662L182.363,98.177L184.946,98.177L184.946,100.897L187.461,100.897L187.461,98.177L190.181,98.177L190.181,95.662L187.461,95.662L187.461,92.943L184.946,92.943L184.946,95.662L182.295,95.662ZM148.576,95.662L148.576,98.177L151.159,98.177L151.159,100.897L153.674,100.897L153.674,98.177L156.394,98.177L156.394,95.662L153.674,95.662L153.674,92.943L151.159,92.943L151.159,95.662L148.576,95.662Z" style="fill:white;"/>
    </g>
</svg>
