<?xml version="1.0" standalone="no"?>
<!DOCTYPE svg PUBLIC "-//W3C//DTD SVG 1.1//EN" "http://www.w3.org/Graphics/SVG/1.1/DTD/svg11.dtd">
<svg width="100%" height="100%" viewBox="0 0 137 14" version="1.1" xmlns="http://www.w3.org/2000/svg" xmlns:xlink="http://www.w3.org/1999/xlink" xml:space="preserve" style="fill-rule:evenodd;clip-rule:evenodd;stroke-linejoin:round;stroke-miterlimit:1.41421;">
    <g transform="matrix(1,0,0,1,-3.094,-90.087)">
        <path d="M15.671,93.147C15.399,92.739 15.331,92.603 15.059,92.263C14.855,92.059 14.447,91.651 13.835,91.243C13.155,90.767 11.864,90.087 9.824,90.087C8.329,90.087 6.969,90.427 5.745,91.379C5.269,91.719 4.929,92.059 4.794,92.263C3.774,93.351 3.366,94.71 3.23,95.254C3.162,95.594 3.094,96.138 3.094,97.022C3.094,99.129 3.774,100.421 4.25,101.168C5.541,103.072 7.309,103.616 8.193,103.752C8.669,103.888 9.28,103.956 9.756,103.956C10.776,103.956 13.427,103.752 15.195,101.304C16.554,99.469 16.487,97.361 16.487,96.614L9.824,96.614L9.824,99.061L13.359,99.061C13.223,99.401 13.087,99.741 12.815,100.081C12.408,100.557 11.524,101.372 9.892,101.372C7.989,101.372 7.037,100.217 6.629,99.673C5.881,98.585 5.881,97.43 5.881,96.954C5.881,96.342 5.949,94.778 7.309,93.623C8.057,93.011 8.872,92.739 9.824,92.739C11.388,92.739 12.408,93.487 12.815,93.894C13.087,94.166 13.223,94.37 13.291,94.506L15.671,93.147ZM17.71,90.427L17.71,103.684L25.188,103.684L25.188,101.033L20.565,101.033L20.565,98.177L25.052,98.177L25.052,95.662L20.565,95.662L20.565,93.011L25.188,93.011L25.188,90.427L17.71,90.427ZM33.482,90.087C30.627,90.087 28.111,91.651 27.024,94.302C26.548,95.526 26.48,96.75 26.48,97.226C26.48,100.285 28.179,101.984 29.131,102.664C30.831,103.956 32.87,104.024 33.55,104.024C36.405,104.024 38.852,102.732 40.008,100.013C40.484,98.721 40.552,97.701 40.552,97.158C40.552,94.778 39.533,93.215 38.989,92.535C37.629,90.971 35.929,90.495 35.182,90.291C34.434,90.156 33.754,90.087 33.482,90.087ZM33.55,92.875C35.25,92.875 36.269,93.826 36.677,94.302C37.561,95.39 37.629,96.614 37.629,97.09C37.629,98.381 37.153,99.673 36.133,100.489C35.725,100.829 34.978,101.304 33.686,101.304C31.986,101.304 30.355,100.489 29.675,98.789C29.403,98.041 29.335,97.361 29.335,97.09C29.335,95.254 30.491,94.166 30.967,93.759C31.986,92.943 33.142,92.875 33.55,92.875ZM41.912,90.427L41.912,103.684L44.699,103.684L44.699,98.109L48.234,103.684L51.633,103.684L47.826,98.041C48.642,97.837 48.846,97.769 49.254,97.498C50.274,96.886 50.749,95.526 50.749,94.37C50.749,94.03 50.749,93.079 50.137,92.127C49.322,90.835 47.962,90.563 46.467,90.495C46.127,90.427 45.787,90.427 45.447,90.427L41.912,90.427ZM44.699,92.739L45.719,92.739C46.399,92.739 47.078,92.807 47.622,93.418C47.962,93.826 47.962,94.302 47.962,94.506C47.962,94.982 47.826,95.254 47.758,95.39C47.282,96.138 46.535,96.206 45.787,96.206L44.699,96.206L44.699,92.739ZM64.482,93.147C64.278,92.739 64.142,92.603 63.87,92.263C63.734,92.059 63.258,91.651 62.714,91.243C62.035,90.767 60.743,90.087 58.703,90.087C57.208,90.087 55.78,90.427 54.624,91.379C54.149,91.719 53.741,92.059 53.605,92.263C52.585,93.351 52.381,94.71 52.313,95.254C52.245,95.594 52.109,96.138 52.109,97.022C52.109,99.129 52.585,100.421 53.129,101.168C54.42,103.072 56.12,103.616 57.004,103.752C57.48,103.888 58.16,103.956 58.635,103.956C59.655,103.956 62.306,103.752 64.074,101.304C65.365,99.469 65.297,97.361 65.297,96.614L58.703,96.614L58.703,99.061L62.238,99.061C62.035,99.401 61.898,99.741 61.695,100.081C61.287,100.557 60.403,101.372 58.771,101.372C56.868,101.372 55.848,100.217 55.44,99.673C54.76,98.585 54.76,97.43 54.76,96.954C54.76,96.342 54.76,94.778 56.12,93.623C56.868,93.011 57.684,92.739 58.703,92.739C60.267,92.739 61.219,93.487 61.695,93.894C61.966,94.166 62.103,94.37 62.17,94.506L64.482,93.147ZM72.64,90.427L72.64,103.684L75.495,103.684L75.495,98.109L80.322,98.109L80.322,95.526L75.495,95.526L75.495,92.943L80.322,92.943L80.322,90.427L72.64,90.427ZM84.808,90.427L81.953,90.427L81.953,103.684L84.808,103.684L84.808,90.427ZM94.598,91.855C94.394,91.651 93.782,90.971 92.966,90.563C92.015,90.156 91.063,90.087 90.791,90.087C90.111,90.087 88.275,90.224 87.12,91.855C86.916,92.195 86.44,92.943 86.44,94.03C86.44,95.662 87.46,96.614 87.868,97.022C88.479,97.43 89.091,97.837 89.771,98.109C90.315,98.381 91.199,98.721 91.539,99.265C91.675,99.469 91.743,99.741 91.743,100.013C91.743,100.897 90.995,101.508 90.111,101.508C89.091,101.508 88.275,100.693 87.732,100.013L85.828,102.12C86.032,102.324 86.848,103.208 87.868,103.616C88.819,103.956 89.839,103.956 90.111,103.956C90.451,103.956 91.539,103.956 92.558,103.412C93.034,103.14 93.306,102.8 93.442,102.732C93.918,102.256 94.734,101.304 94.734,99.673C94.734,98.109 93.986,97.293 93.442,96.886C92.966,96.478 92.558,96.274 91.335,95.662C90.655,95.39 89.431,94.914 89.431,93.894C89.431,93.147 90.111,92.671 90.791,92.671C91.879,92.671 92.626,93.759 92.762,93.962L94.598,91.855ZM106.019,91.039C105.679,90.903 105.339,90.767 104.931,90.631C103.707,90.224 102.552,90.156 102.144,90.156C101.736,90.156 100.648,90.156 99.628,90.563C98.745,90.903 98.065,91.447 97.453,92.127C96.909,92.739 96.637,93.147 96.501,93.418C95.958,94.506 95.685,95.866 95.685,97.09C95.685,100.081 97.181,101.78 98.065,102.528C99.628,103.888 101.532,103.956 102.212,103.956C104.047,103.956 105.407,103.276 105.951,103.072L106.019,99.945C105.747,100.149 105.543,100.285 105.339,100.489C104.727,100.897 103.844,101.168 103.503,101.236C103.028,101.304 102.688,101.304 102.552,101.304C100.036,101.304 99.153,99.673 98.813,98.789C98.609,98.041 98.609,97.43 98.609,97.158C98.609,94.846 99.833,93.691 100.58,93.283C101.328,92.807 102.144,92.807 102.484,92.807C104.319,92.807 105.543,93.894 106.019,94.302L106.019,91.039ZM107.514,90.427L107.514,103.684L110.438,103.684L110.438,98.245L115.332,98.245L115.332,103.684L118.188,103.684L118.188,90.427L115.332,90.427L115.332,95.662L110.438,95.662L110.438,90.427L107.514,90.427ZM120.295,90.427L120.295,103.684L127.773,103.684L127.773,101.033L123.15,101.033L123.15,98.177L127.637,98.177L127.637,95.662L123.15,95.662L123.15,93.011L127.773,93.011L127.773,90.427L120.295,90.427ZM129.745,90.427L129.745,103.684L132.532,103.684L132.532,98.109L135.999,103.684L139.398,103.684L135.591,98.041C136.475,97.837 136.679,97.769 137.087,97.498C138.106,96.886 138.582,95.526 138.582,94.37C138.582,94.03 138.514,93.079 137.97,92.127C137.155,90.835 135.727,90.563 134.299,90.495C133.959,90.427 133.62,90.427 133.28,90.427L129.745,90.427ZM132.532,92.739L133.483,92.739C134.232,92.739 134.911,92.807 135.387,93.418C135.795,93.826 135.795,94.302 135.795,94.506C135.795,94.982 135.659,95.254 135.523,95.39C135.115,96.138 134.367,96.206 133.551,96.206L132.532,96.206L132.532,92.739Z" style="fill:black;"/>
    </g>
</svg>
