<?xml version="1.0" standalone="no"?>
<!DOCTYPE svg PUBLIC "-//W3C//DTD SVG 1.1//EN" "http://www.w3.org/Graphics/SVG/1.1/DTD/svg11.dtd">
<svg width="100%" height="100%" viewBox="0 0 24 24" version="1.1" xmlns="http://www.w3.org/2000/svg" xmlns:xlink="http://www.w3.org/1999/xlink" xml:space="preserve" style="fill-rule:evenodd;clip-rule:evenodd;stroke-linejoin:round;stroke-miterlimit:1.41421;">
    <g transform="matrix(1,0,0,1,-2.5,2.5)">
        <path d="M24,13L13,13L13,19L11,19L11,13L5,13L5,11L11,11L11,0L13,0L13,11L24,11L24,13Z" style="fill:black;fill-rule:nonzero;"/>
    </g>
    <g transform="matrix(1,0,0,1,2.5,-2.5)">
        <path d="M19,13L13,13L13,24L11,24L11,13L0,13L0,11L11,11L11,5L13,5L13,11L19,11L19,13Z" style="fill:black;fill-rule:nonzero;"/>
    </g>
</svg>
