<?xml version="1.0" standalone="no"?>
<!DOCTYPE svg PUBLIC "-//W3C//DTD SVG 1.1//EN" "http://www.w3.org/Graphics/SVG/1.1/DTD/svg11.dtd">
<svg width="100%" height="100%" viewBox="0 0 24 24" version="1.1" xmlns="http://www.w3.org/2000/svg" xmlns:xlink="http://www.w3.org/1999/xlink" xml:space="preserve" style="fill-rule:evenodd;clip-rule:evenodd;stroke-linejoin:round;stroke-miterlimit:1.41421;">
    <g transform="matrix(0.608486,0,0,0.608486,-18.4248,-18.423)">
        <path d="M50,67.997C45.582,67.997 42.001,64.416 42.001,59.998C42.001,57.973 42.76,56.129 44,54.72L44,38.001C44,34.688 46.687,32.002 50,32.002C53.312,32.002 55.999,34.688 55.999,38.001L55.999,54.72C57.239,56.129 57.999,57.973 57.999,59.998C57.999,64.416 54.417,67.997 50,67.997ZM51.999,56.553L51.999,52.261L51.999,42L51.999,38.001C51.999,36.897 51.103,36.001 50,36.001C48.896,36.001 48,36.897 48,38.001L48,56.553C46.81,57.246 46,58.522 46,59.998C46,62.207 47.791,63.997 50,63.997C52.208,63.997 53.999,62.207 53.999,59.998C53.999,58.521 53.189,57.246 51.999,56.553Z" style="fill:black;"/>
    </g>
</svg>
